<svg width="341" height="371" viewBox="0 0 341 371" fill="none" xmlns="http://www.w3.org/2000/svg">
<path fill-rule="evenodd" clip-rule="evenodd" d="M104.927 12.8713L16.061 344.524L65.8178 357.856L62.4531 370.413L0.139292 353.716L92.37 9.50668L104.927 12.8713ZM167.828 48.0708C162.827 50.951 158.433 54.2597 154.646 57.9971L145.744 55.6118L153.695 25.9386L104.927 12.8713L108.292 0.314297L169.616 16.7462L161.665 46.4194L167.828 48.0708ZM176.232 43.8782C174.213 45.428 172.325 47.0702 170.567 48.8047L167.828 48.0708C170.462 46.5544 173.263 45.1569 176.232 43.8782ZM263.551 286.212C270.37 281.48 276.848 275.884 282.985 269.426C298.241 253.372 309.447 231.991 316.603 205.286L318.723 197.373C325.879 170.667 326.865 146.548 321.679 125.016C316.494 103.485 306.775 85.6852 292.522 71.6183C278.358 57.2217 261.384 47.3731 241.602 42.0725C219.512 36.1535 201.517 35.3954 187.615 39.7982C183.58 40.9881 179.786 42.3481 176.232 43.8782C183.595 38.2264 192.697 33.8023 203.537 30.6058C217.438 26.203 235.434 26.9611 257.524 32.8801C277.306 38.1807 294.279 48.0293 308.444 62.4259C322.697 76.4928 332.416 94.2921 337.601 115.824C342.786 137.356 341.801 161.474 334.645 188.18L332.525 196.093C325.369 222.799 314.163 244.179 298.907 260.234C288.165 271.537 276.379 280.197 263.551 286.212ZM263.551 286.212C253.42 293.242 242.537 298.367 230.903 301.586C211.526 306.642 191.946 306.519 172.164 301.219C157.328 297.243 145.285 292.073 136.036 285.708C127.028 279.76 120.099 273.31 115.248 266.356C112.172 261.363 109.652 256.52 107.687 251.825L112.431 234.12L121.333 236.506C123.458 243.082 126.737 249.968 131.17 257.164C136.021 264.117 142.95 270.568 151.957 276.515C161.206 282.881 173.249 288.051 188.086 292.026C207.868 297.327 227.448 297.449 246.824 292.394C252.584 290.8 258.16 288.739 263.551 286.212ZM107.687 251.825L78.3748 361.221L65.8178 357.856L96.5095 243.313L105.412 245.698C106.062 247.711 106.821 249.754 107.687 251.825ZM228.86 230.915C215.142 236.393 200.146 236.951 183.87 232.59C164.747 227.466 150.391 217.082 140.801 201.437C131.3 185.463 129.729 165.607 136.09 141.868L137.415 136.923C142.628 117.468 151.12 103.046 162.893 93.6559C176.969 87.8498 192.082 87.1105 208.233 91.4379C227.355 96.5618 241.667 107.111 251.169 123.085C260.758 138.729 262.373 158.421 256.012 182.159L254.687 187.105C249.436 206.702 240.827 221.305 228.86 230.915ZM228.86 230.915C231.537 229.846 234.165 228.589 236.744 227.145C252.96 218.062 264.248 201.651 270.609 177.913L271.934 172.967C278.295 149.228 276.68 129.537 267.09 113.893C257.589 97.9184 243.277 87.3694 224.154 82.2455C205.031 77.1216 187.362 79.1012 171.147 88.1845C168.236 89.7643 165.485 91.5881 162.893 93.6559C160.302 94.7246 157.746 95.9649 155.225 97.3769C139.098 106.131 127.854 122.377 121.493 146.115L120.168 151.061C113.808 174.799 115.378 194.656 124.879 210.63C134.469 226.274 148.825 236.658 167.948 241.782C187.4 246.995 205.025 245.18 220.823 236.338C223.652 234.753 226.331 232.945 228.86 230.915Z" fill="url(#paint0_linear_2_37)"/>
<defs>
<linearGradient id="paint0_linear_2_37" x1="232.947" y1="26.2947" x2="135.496" y2="389.985" gradientUnits="userSpaceOnUse">
<stop stop-color="#20ADFF"/>
<stop offset="1" stop-color="white"/>
</linearGradient>
</defs>
</svg>
