<svg width="90" height="138" viewBox="0 0 90 138" fill="none" xmlns="http://www.w3.org/2000/svg">
<path d="M85 5H21C12.1634 5 5 12.1634 5 21V133M37 101V101C45.8366 101 53 93.8366 53 85V85C53 76.1634 45.8366 69 37 69V69C28.1634 69 21 76.1634 21 85V85C21 93.8366 28.1634 101 37 101ZM21 37V37C21 28.1634 28.1634 21 37 21V21C45.8366 21 53 28.1634 53 37V37C53 45.8366 45.8366 53 37 53V53C28.1634 53 21 45.8366 21 37Z" stroke="white" stroke-width="9" stroke-linecap="round" stroke-linejoin="round"/>
</svg>
